<!DOCTYPE svg PUBLIC "-//W3C//DTD SVG 1.1//EN" "http://www.w3.org/Graphics/SVG/1.1/DTD/svg11.dtd">
<!-- Uploaded to: SVG Repo, www.svgrepo.com, Transformed by: SVG Repo Mixer Tools -->
<svg fill="#1FC1B8" height="64px" width="64px" version="1.1" id="Layer_1" xmlns="http://www.w3.org/2000/svg" xmlns:xlink="http://www.w3.org/1999/xlink" viewBox="0 0 512 512" xml:space="preserve">
<g id="SVGRepo_bgCarrier" stroke-width="0"/>
<g id="SVGRepo_tracerCarrier" stroke-linecap="round" stroke-linejoin="round"/>
<g id="SVGRepo_iconCarrier"> <g> <g> <path d="M471.562,64.366c-3.258-3.248-7.67-5.289-12.268-5.289c-0.017,0-0.036,0-0.053,0l-55.549,0.468V49.81 c0-27.335-21.836-49.81-49.171-49.81H107.001C79.666,0,57.339,22.475,57.339,49.81v9.267h-4.633 c-9.596,0-17.376,7.78-17.376,17.376s7.78,17.376,17.376,17.376h4.633v9.822c0,27.335,22.326,49.255,49.662,49.255h247.521 c27.335,0,49.171-21.92,49.171-49.255v-8.793l38.226-0.537v43.574L222.664,259.559c-5.521,3.064-8.945,8.88-8.945,15.193v39.167 h-24.51c-9.596,0-17.191,8.224-17.191,17.82v162.648c0,9.596,7.595,17.613,17.191,17.613h83.105 c9.596,0,17.857-8.017,17.857-17.613V331.739c0-9.596-8.261-17.82-17.857-17.82h-23.844v-28.936l219.254-121.665 c5.521-3.064,8.945-8.88,8.945-15.193V76.89C476.67,72.273,474.831,67.626,471.562,64.366z M368.941,103.333L368.941,103.333 c0,8.185-6.635,14.821-14.821,14.821H106.912c-8.186,0-14.821-6.635-14.821-14.821v-53.76c0-8.186,6.635-14.821,14.821-14.821 H354.12c8.185,0,14.821,6.635,14.821,14.821V103.333z M255.421,477.249h-48.652V462.19h44.018c1.434,0,2.317-0.193,4.633-0.52 V477.249z M255.421,348.67v79.289c-2.317-0.328-3.199-0.52-4.633-0.52h-44.018V348.67H255.421z"/> </g> </g> </g>
</svg>